<svg  viewBox="0 0 147 46" fill="none" xmlns="http://www.w3.org/2000/svg">
<path d="M33.02 29.21L18.1356 7.62939e-06L3.2512 29.21L0 35.56H7.112L10.3632 29.21L18.1356 13.97L25.908 29.21L29.1592 35.56H36.2712L33.02 29.21Z" />
<path d="M52.0073 6.35H69.7873V7.62939e-06H52.0073C42.2029 7.62939e-06 34.2273 7.97561 34.2273 17.78C34.2273 27.5844 42.2029 35.56 52.0073 35.56H69.7873V16.0528H52.0073V22.4028H63.4373V29.21H52.0073C45.7081 29.21 40.5773 24.0792 40.5773 17.78C40.5773 11.4808 45.7081 6.35 52.0073 6.35V6.35Z" />
<path d="M85.575 29.21C83.3398 28.9052 81.5618 27.1272 81.257 24.892V0.0508041H74.907V24.2824C74.907 26.0604 75.3134 27.7368 76.0754 29.2608C77.1422 31.496 78.971 33.3248 81.2062 34.4424C82.7302 35.2044 84.4066 35.6108 86.1846 35.6108H104.219V29.2608L85.575 29.21Z" />
<path d="M99.8109 0.0508041V6.40079H114.39V35.6108H120.74V6.40079H135.32V0.0508041H99.8109Z" />
<path d="M146.841 35.56V7.62939e-06H140.491V35.56H146.841Z" />
<path d="M5.49478 42.7144C5.49478 42.5028 5.51172 42.2932 5.54558 42.0858C5.58368 41.8784 5.65353 41.6625 5.75513 41.4381C5.85673 41.2137 5.98162 41.019 6.12978 40.8539C6.28218 40.6846 6.48538 40.5449 6.73938 40.4348C6.99762 40.3247 7.2876 40.2697 7.60933 40.2697C8.61686 40.2697 9.21165 40.7735 9.39368 41.781H8.79043C8.7227 41.4508 8.58935 41.2031 8.39038 41.038C8.19141 40.8729 7.90778 40.7904 7.53948 40.7904C7.09075 40.7904 6.73515 40.9618 6.47268 41.3047C6.21445 41.6476 6.08533 42.1154 6.08533 42.7081C6.08533 43.2881 6.2208 43.7495 6.49173 44.0924C6.76266 44.4311 7.12885 44.6004 7.59028 44.6004C7.97128 44.6004 8.26338 44.4946 8.46658 44.2829C8.66978 44.067 8.80736 43.7347 8.87933 43.2859H9.48893C9.34923 44.5094 8.71423 45.1211 7.58393 45.1211C7.26643 45.1211 6.98068 45.0682 6.72668 44.9623C6.47691 44.8523 6.27583 44.7147 6.12343 44.5496C5.97527 44.3845 5.85038 44.1919 5.74878 43.9717C5.65141 43.7474 5.58368 43.5336 5.54558 43.3304C5.51172 43.1272 5.49478 42.9219 5.49478 42.7144V42.7144Z" />
<path d="M15.5573 42.7335C15.5573 43.4193 15.3541 43.9887 14.9477 44.4416C14.5413 44.8946 13.9994 45.1211 13.3221 45.1211C12.6532 45.1211 12.1135 44.8988 11.7029 44.4543C11.2922 44.0056 11.0869 43.4193 11.0869 42.6954C11.0869 41.9715 11.2922 41.3873 11.7029 40.9428C12.1135 40.4941 12.6511 40.2697 13.3158 40.2697C13.9931 40.2697 14.535 40.4941 14.9414 40.9428C15.352 41.3915 15.5573 41.9884 15.5573 42.7335V42.7335ZM13.3158 40.7904C12.8247 40.7904 12.4289 40.9661 12.1283 41.3174C11.8277 41.6646 11.6775 42.1239 11.6775 42.6954C11.6775 43.2669 11.8277 43.7283 12.1283 44.0797C12.4331 44.4268 12.831 44.6004 13.3221 44.6004C13.8132 44.6004 14.209 44.4268 14.5096 44.0797C14.8144 43.7326 14.9668 43.2796 14.9668 42.7208C14.9668 42.1366 14.8165 41.6688 14.5159 41.3174C14.2153 40.9661 13.8153 40.7904 13.3158 40.7904V40.7904Z" />
<path d="M21.0238 40.3459V44.975H20.3571L17.9631 41.2222V44.975H17.4043V40.3459H18.0457L20.465 44.1305V40.3459H21.0238Z" />
<path d="M26.7524 40.3459V44.975H26.0856L23.6917 41.2222V44.975H23.1329V40.3459H23.7742L26.1936 44.1305V40.3459H26.7524Z" />
<path d="M29.452 42.8668V44.4543H32.1825V44.975H28.8614V40.3459H32.0682V40.8666H29.452V42.3461H31.9729V42.8668H29.452Z" />
<path d="M33.7159 42.7144C33.7159 42.5028 33.7328 42.2932 33.7667 42.0858C33.8048 41.8784 33.8746 41.6625 33.9762 41.4381C34.0778 41.2137 34.2027 41.019 34.3509 40.8539C34.5033 40.6846 34.7065 40.5449 34.9605 40.4348C35.2187 40.3247 35.5087 40.2697 35.8304 40.2697C36.838 40.2697 37.4327 40.7735 37.6148 41.781H37.0115C36.9438 41.4508 36.8104 41.2031 36.6115 41.038C36.4125 40.8729 36.1289 40.7904 35.7606 40.7904C35.3118 40.7904 34.9562 40.9618 34.6938 41.3047C34.4355 41.6476 34.3064 42.1154 34.3064 42.7081C34.3064 43.2881 34.4419 43.7495 34.7128 44.0924C34.9838 44.4311 35.3499 44.6004 35.8114 44.6004C36.1924 44.6004 36.4845 44.4946 36.6877 44.2829C36.8909 44.067 37.0285 43.7347 37.1004 43.2859H37.71C37.5703 44.5094 36.9353 45.1211 35.805 45.1211C35.4875 45.1211 35.2018 45.0682 34.9478 44.9623C34.698 44.8523 34.4969 44.7147 34.3445 44.5496C34.1964 44.3845 34.0715 44.1919 33.9699 43.9717C33.8725 43.7474 33.8048 43.5336 33.7667 43.3304C33.7328 43.1272 33.7159 42.9219 33.7159 42.7144V42.7144Z" />
<path d="M41.3591 40.8666V44.975H40.7685V40.8666H39.2445V40.3459H42.8767V40.8666H41.3591Z" />
<path d="M45.3309 44.3146V44.975H44.6705V44.3146H45.3309Z" />
<path d="M47.094 42.7144C47.094 42.5028 47.111 42.2932 47.1448 42.0858C47.1829 41.8784 47.2528 41.6625 47.3544 41.4381C47.456 41.2137 47.5809 41.019 47.729 40.8539C47.8814 40.6846 48.0846 40.5449 48.3386 40.4348C48.5969 40.3247 48.8869 40.2697 49.2086 40.2697C50.2161 40.2697 50.8109 40.7735 50.9929 41.781H50.3897C50.322 41.4508 50.1886 41.2031 49.9896 41.038C49.7907 40.8729 49.507 40.7904 49.1387 40.7904C48.69 40.7904 48.3344 40.9618 48.0719 41.3047C47.8137 41.6476 47.6846 42.1154 47.6846 42.7081C47.6846 43.2881 47.8201 43.7495 48.091 44.0924C48.3619 44.4311 48.7281 44.6004 49.1895 44.6004C49.5705 44.6004 49.8626 44.4946 50.0658 44.2829C50.269 44.067 50.4066 43.7347 50.4786 43.2859H51.0882C50.9485 44.5094 50.3135 45.1211 49.1832 45.1211C48.8657 45.1211 48.5799 45.0682 48.3259 44.9623C48.0762 44.8523 47.8751 44.7147 47.7227 44.5496C47.5745 44.3845 47.4496 44.1919 47.348 43.9717C47.2507 43.7474 47.1829 43.5336 47.1448 43.3304C47.111 43.1272 47.094 42.9219 47.094 42.7144V42.7144Z" />
<path d="M57.1566 42.7335C57.1566 43.4193 56.9534 43.9887 56.547 44.4416C56.1406 44.8946 55.5987 45.1211 54.9214 45.1211C54.2525 45.1211 53.7127 44.8988 53.3021 44.4543C52.8915 44.0056 52.6862 43.4193 52.6862 42.6954C52.6862 41.9715 52.8915 41.3873 53.3021 40.9428C53.7127 40.4941 54.2504 40.2697 54.915 40.2697C55.5923 40.2697 56.1342 40.4941 56.5406 40.9428C56.9513 41.3915 57.1566 41.9884 57.1566 42.7335V42.7335ZM54.915 40.7904C54.4239 40.7904 54.0281 40.9661 53.7276 41.3174C53.427 41.6646 53.2767 42.1239 53.2767 42.6954C53.2767 43.2669 53.427 43.7283 53.7276 44.0797C54.0324 44.4268 54.4303 44.6004 54.9214 44.6004C55.4124 44.6004 55.8083 44.4268 56.1088 44.0797C56.4136 43.7326 56.566 43.2796 56.566 42.7208C56.566 42.1366 56.4157 41.6688 56.1152 41.3174C55.8146 40.9661 55.4145 40.7904 54.915 40.7904Z" />
<path d="M59.5941 40.3459V44.4543H61.8801V44.975H59.0036V40.3459H59.5941Z" />
<path d="M64.2561 40.3459V44.4543H66.5421V44.975H63.6655V40.3459H64.2561Z" />
<path d="M70.8167 43.5844H69.0323L68.5434 44.975H67.9147L69.5658 40.3459H70.3277L71.9533 44.975H71.2929L70.8167 43.5844ZM70.6516 43.0891L69.9404 40.9809L69.1784 43.0891H70.6516Z" />
<path d="M77.1012 43.6542C77.1012 44.0522 76.9763 44.3718 76.7265 44.6131C76.4768 44.8544 76.1466 44.975 75.7359 44.975H73.6468V40.3459H75.5264C75.7846 40.3459 76.009 40.384 76.1995 40.4602C76.39 40.5364 76.5318 40.638 76.6249 40.765C76.7223 40.8878 76.7922 41.0126 76.8345 41.1396C76.8768 41.2624 76.898 41.3894 76.898 41.5206C76.898 41.9948 76.6842 42.3313 76.2566 42.5303C76.553 42.6446 76.7668 42.7906 76.898 42.9684C77.0335 43.1462 77.1012 43.3748 77.1012 43.6542V43.6542ZM75.3803 42.3398C75.9984 42.3398 76.3074 42.0943 76.3074 41.6032C76.3074 41.1121 75.9984 40.8666 75.3803 40.8666H74.2373V42.3398H75.3803ZM75.6788 44.4543C75.8862 44.4543 76.0555 44.4099 76.1868 44.321C76.318 44.2279 76.4048 44.1263 76.4471 44.0162C76.4895 43.9061 76.5106 43.7876 76.5106 43.6606C76.5106 43.4193 76.4387 43.2267 76.2947 43.0827C76.1508 42.9346 75.9455 42.8605 75.6788 42.8605H74.2373V44.4543H75.6788Z" />
<path d="M83.17 42.7335C83.17 43.4193 82.9668 43.9887 82.5604 44.4416C82.154 44.8946 81.6122 45.1211 80.9348 45.1211C80.266 45.1211 79.7262 44.8988 79.3156 44.4543C78.905 44.0056 78.6996 43.4193 78.6996 42.6954C78.6996 41.9715 78.905 41.3873 79.3156 40.9428C79.7262 40.4941 80.2639 40.2697 80.9285 40.2697C81.6058 40.2697 82.1477 40.4941 82.5541 40.9428C82.9647 41.3915 83.17 41.9884 83.17 42.7335V42.7335ZM80.9285 40.7904C80.4374 40.7904 80.0416 40.9661 79.7411 41.3174C79.4405 41.6646 79.2902 42.1239 79.2902 42.6954C79.2902 43.2669 79.4405 43.7283 79.7411 44.0797C80.0459 44.4268 80.4438 44.6004 80.9348 44.6004C81.4259 44.6004 81.8217 44.4268 82.1223 44.0797C82.4271 43.7326 82.5795 43.2796 82.5795 42.7208C82.5795 42.1366 82.4292 41.6688 82.1286 41.3174C81.8281 40.9661 81.428 40.7904 80.9285 40.7904V40.7904Z" />
<path d="M87.8301 42.689C87.9656 42.7483 88.0778 42.8182 88.1667 42.8986C88.2598 42.979 88.3254 43.07 88.3635 43.1716C88.4058 43.2732 88.4333 43.3685 88.446 43.4574C88.4587 43.5463 88.465 43.6521 88.465 43.7749C88.465 43.813 88.463 43.8681 88.459 43.94C88.459 44.012 88.459 44.0649 88.459 44.0987C88.459 44.2723 88.4781 44.4184 88.5162 44.5369C88.5543 44.6554 88.6284 44.7528 88.7385 44.829V44.975H88.0209C87.9362 44.7803 87.8939 44.5284 87.8939 44.2194V43.8066C87.8939 43.523 87.8325 43.3156 87.7098 43.1843C87.587 43.0489 87.3944 42.9811 87.1319 42.9811H85.6079V44.975H85.0174V40.3459H87.151C87.6039 40.3459 87.9511 40.4538 88.1924 40.6697C88.4379 40.8814 88.5607 41.1862 88.5607 41.5841C88.5607 41.8466 88.5035 42.0646 88.3892 42.2382C88.2749 42.4118 88.0886 42.562 87.8304 42.689H87.8301ZM87.9444 41.6667C87.9444 41.3619 87.864 41.1523 87.7031 41.038C87.5423 40.9237 87.32 40.8666 87.0364 40.8666H85.6076V42.4604H87.0364C87.3496 42.4604 87.5782 42.3969 87.7222 42.2699C87.8703 42.1429 87.9444 41.9419 87.9444 41.6667V41.6667Z" />
<path d="M93.0984 43.5844H91.314L90.8251 44.975H90.1964L91.8474 40.3459H92.6094L94.235 44.975H93.5746L93.0984 43.5844ZM92.9333 43.0891L92.2221 40.9809L91.4601 43.0891H92.9333Z" />
<path d="M97.7255 40.8666V44.975H97.135V40.8666H95.611V40.3459H99.2432V40.8666H97.7255Z" />
<path d="M101.627 42.8668V44.4543H104.358V44.975H101.037V40.3459H104.244V40.8666H101.627V42.3461H104.148V42.8668H101.627Z" />
<path d="M106.806 44.3146V44.975H106.145V44.3146H106.806Z" />
<path d="M108.569 42.7144C108.569 42.5028 108.586 42.2932 108.62 42.0858C108.658 41.8784 108.728 41.6625 108.829 41.4381C108.931 41.2137 109.056 41.019 109.204 40.8539C109.356 40.6846 109.56 40.5449 109.814 40.4348C110.072 40.3247 110.362 40.2697 110.683 40.2697C111.691 40.2697 112.286 40.7735 112.468 41.781H111.865C111.797 41.4508 111.664 41.2031 111.465 41.038C111.266 40.8729 110.982 40.7904 110.614 40.7904C110.165 40.7904 109.809 40.9618 109.547 41.3047C109.289 41.6476 109.159 42.1154 109.159 42.7081C109.159 43.2881 109.295 43.7495 109.566 44.0924C109.837 44.4311 110.203 44.6004 110.664 44.6004C111.045 44.6004 111.338 44.4946 111.541 44.2829C111.744 44.067 111.882 43.7347 111.953 43.2859H112.563C112.423 44.5094 111.788 45.1211 110.658 45.1211C110.341 45.1211 110.055 45.0682 109.801 44.9623C109.551 44.8523 109.35 44.7147 109.198 44.5496C109.049 44.3845 108.925 44.1919 108.823 43.9717C108.726 43.7474 108.658 43.5336 108.62 43.3304C108.586 43.1272 108.569 42.9219 108.569 42.7144V42.7144Z" />
<path d="M117.228 42.689C117.364 42.7483 117.476 42.8182 117.565 42.8986C117.658 42.979 117.723 43.07 117.762 43.1716C117.804 43.2732 117.831 43.3685 117.844 43.4574C117.857 43.5463 117.863 43.6521 117.863 43.7749C117.863 43.813 117.861 43.8681 117.857 43.94C117.857 44.012 117.857 44.0649 117.857 44.0987C117.857 44.2723 117.876 44.4184 117.914 44.5369C117.952 44.6554 118.026 44.7528 118.136 44.829V44.975H117.419C117.334 44.7803 117.292 44.5284 117.292 44.2194V43.8066C117.292 43.523 117.231 43.3156 117.108 43.1843C116.985 43.0489 116.792 42.9811 116.53 42.9811H115.006V44.975H114.415V40.3459H116.549C117.002 40.3459 117.349 40.4538 117.59 40.6697C117.836 40.8814 117.959 41.1862 117.959 41.5841C117.959 41.8466 117.902 42.0646 117.787 42.2382C117.673 42.4118 117.487 42.562 117.228 42.689H117.228ZM117.342 41.6667C117.342 41.3619 117.262 41.1523 117.101 41.038C116.94 40.9237 116.718 40.8666 116.434 40.8666H115.006V42.4604H116.434C116.748 42.4604 116.976 42.3969 117.12 42.2699C117.268 42.1429 117.342 41.9419 117.342 41.6667V41.6667Z" />
<path d="M120.598 42.8668V44.4543H123.328V44.975H120.007V40.3459H123.214V40.8666H120.598V42.3461H123.119V42.8668H120.598Z" />
<path d="M127.605 43.5844H125.82L125.332 44.975H124.703L126.354 40.3459H127.116L128.741 44.975H128.081L127.605 43.5844ZM127.44 43.0891L126.729 40.9809L125.967 43.0891H127.44Z" />
<path d="M132.232 40.8666V44.975H131.641V40.8666H130.117V40.3459H133.75V40.8666H132.232Z" />
<path d="M136.134 42.8668V44.4543H138.864V44.975H135.543V40.3459H138.75V40.8666H136.134V42.3461H138.655V42.8668H136.134Z" />
<path d="M141.312 44.3146V44.975H140.652V44.3146H141.312Z" />
</svg>
