<svg  viewBox="0 0 147 46" fill="none" xmlns="http://www.w3.org/2000/svg">
<path d="M33.02 29.21L18.1356 7.62939e-06L3.2512 29.21L0 35.56H7.112L10.3632 29.21L18.1356 13.97L25.908 29.21L29.1592 35.56H36.2712L33.02 29.21Z" />
<path d="M52.0073 6.35H69.7873V7.62939e-06H52.0073C42.2029 7.62939e-06 34.2273 7.97561 34.2273 17.78C34.2273 27.5844 42.2029 35.56 52.0073 35.56H69.7873V16.0528H52.0073V22.4028H63.4373V29.21H52.0073C45.7081 29.21 40.5773 24.0792 40.5773 17.78C40.5773 11.4808 45.7081 6.35 52.0073 6.35V6.35Z" />
<path d="M85.575 29.21C83.3398 28.9052 81.5618 27.1272 81.257 24.892V0.0508041H74.907V24.2824C74.907 26.0604 75.3134 27.7368 76.0754 29.2608C77.1422 31.496 78.971 33.3248 81.2062 34.4424C82.7302 35.2044 84.4066 35.6108 86.1846 35.6108H104.219V29.2608L85.575 29.21Z" />
<path d="M99.8109 0.0508041V6.40079H114.39V35.6108H120.74V6.40079H135.32V0.0508041H99.8109Z" />
<path d="M146.841 35.56V7.62939e-06H140.491V35.56H146.841Z" />
</svg>
